<svg xmlns="http://www.w3.org/2000/svg" viewBox="0 0 820 560" font-family="'Segoe UI', Roboto, Helvetica, Arial, sans-serif">
  <defs>
    <marker id="arr" markerWidth="10" markerHeight="10" refX="8" refY="3" orient="auto">
      <path d="M0,0 L8,3 L0,6 Z" fill="#475569"/>
    </marker>
  </defs>
  <rect width="820" height="560" fill="#f8fafc"/>
  <rect x="20" y="20" width="780" height="56" rx="12" fill="#1f3a5f"/>
  <text x="410" y="55" fill="#ffffff" font-size="22" font-weight="700" text-anchor="middle">故障模式与恢复流程</text>

  <rect x="40" y="110" width="370" height="410" rx="12" fill="#ffffff" stroke="#cbd5e1" stroke-width="2"/>
  <rect x="40" y="110" width="370" height="44" rx="12" fill="#d9534f"/>
  <rect x="40" y="138" width="370" height="16" fill="#d9534f"/>
  <text x="60" y="139" fill="#ffffff" font-size="17" font-weight="700">故障模式 Failure modes</text>

  <circle cx="66" cy="185" r="4" fill="#d9534f"/>
  <text x="80" y="190" fill="#475569" font-size="14">编造不存在的 API / 假代码</text>
  <circle cx="66" cy="222" r="4" fill="#d9534f"/>
  <text x="80" y="227" fill="#475569" font-size="14">破坏源文件、改错代码</text>
  <circle cx="66" cy="259" r="4" fill="#d9534f"/>
  <text x="80" y="264" fill="#475569" font-size="14">无限循环、反复打转</text>
  <circle cx="66" cy="296" r="4" fill="#d9534f"/>
  <text x="80" y="301" fill="#475569" font-size="14">遗忘原始目标、越偏越远</text>
  <circle cx="66" cy="333" r="4" fill="#d9534f"/>
  <text x="80" y="338" fill="#475569" font-size="14">错误引发连锁反应</text>
  <circle cx="66" cy="370" r="4" fill="#d9534f"/>
  <text x="80" y="375" fill="#475569" font-size="14">失败静默、假装成功</text>

  <rect x="60" y="400" width="330" height="44" rx="8" fill="#fef2f2" stroke="#fecaca" stroke-width="1.5"/>
  <text x="225" y="420" fill="#b91c1c" font-size="13" font-weight="700" text-anchor="middle">占比 23% · 平均发现 12 min</text>
  <text x="225" y="437" fill="#b91c1c" font-size="12" text-anchor="middle">静默失败最危险</text>

  <rect x="430" y="110" width="350" height="410" rx="12" fill="#ffffff" stroke="#cbd5e1" stroke-width="2"/>
  <rect x="430" y="110" width="350" height="44" rx="12" fill="#2e9e6b"/>
  <rect x="430" y="138" width="350" height="16" fill="#2e9e6b"/>
  <text x="450" y="139" fill="#ffffff" font-size="17" font-weight="700">恢复流程 Recovery</text>

  <rect x="485" y="170" width="240" height="44" rx="10" fill="#ffffff" stroke="#cbd5e1" stroke-width="2"/>
  <circle cx="512" cy="192" r="12" fill="#4a90d9"/>
  <text x="512" y="197" fill="#ffffff" font-size="12" font-weight="700" text-anchor="middle">1</text>
  <text x="535" y="197" fill="#1f3a5f" font-size="15" font-weight="700">检测 Detect</text>

  <line x1="605" y1="214" x2="605" y2="228" stroke="#94a3b8" stroke-width="2.5" marker-end="url(#arr)"/>
  <rect x="485" y="228" width="240" height="44" rx="10" fill="#ffffff" stroke="#cbd5e1" stroke-width="2"/>
  <circle cx="512" cy="250" r="12" fill="#4a90d9"/>
  <text x="512" y="255" fill="#ffffff" font-size="12" font-weight="700" text-anchor="middle">2</text>
  <text x="535" y="255" fill="#1f3a5f" font-size="15" font-weight="700">暂停 Pause</text>

  <line x1="605" y1="272" x2="605" y2="286" stroke="#94a3b8" stroke-width="2.5" marker-end="url(#arr)"/>
  <rect x="485" y="286" width="240" height="44" rx="10" fill="#ffffff" stroke="#cbd5e1" stroke-width="2"/>
  <circle cx="512" cy="308" r="12" fill="#1f3a5f"/>
  <text x="512" y="313" fill="#ffffff" font-size="12" font-weight="700" text-anchor="middle">3</text>
  <text x="535" y="313" fill="#1f3a5f" font-size="15" font-weight="700">分析 Analyze</text>

  <line x1="605" y1="330" x2="605" y2="344" stroke="#94a3b8" stroke-width="2.5" marker-end="url(#arr)"/>
  <rect x="485" y="344" width="240" height="44" rx="10" fill="#ffffff" stroke="#cbd5e1" stroke-width="2"/>
  <circle cx="512" cy="366" r="12" fill="#2e9e6b"/>
  <text x="512" y="371" fill="#ffffff" font-size="12" font-weight="700" text-anchor="middle">4</text>
  <text x="535" y="371" fill="#1f3a5f" font-size="15" font-weight="700">修正 Fix</text>

  <line x1="605" y1="388" x2="605" y2="402" stroke="#94a3b8" stroke-width="2.5" marker-end="url(#arr)"/>
  <rect x="485" y="402" width="240" height="44" rx="10" fill="#ffffff" stroke="#cbd5e1" stroke-width="2"/>
  <circle cx="512" cy="424" r="12" fill="#2e9e6b"/>
  <text x="512" y="429" fill="#ffffff" font-size="12" font-weight="700" text-anchor="middle">5</text>
  <text x="535" y="429" fill="#1f3a5f" font-size="15" font-weight="700">重试 Retry</text>

  <rect x="485" y="458" width="240" height="44" rx="10" fill="#ecfdf5" stroke="#a7f3d0" stroke-width="1.5"/>
  <text x="605" y="478" fill="#047857" font-size="14" font-weight="700" text-anchor="middle">94% 自动恢复</text>
  <text x="605" y="495" fill="#047857" font-size="12" text-anchor="middle">平均恢复 &lt; 5 min</text>
</svg>
