<svg xmlns="http://www.w3.org/2000/svg" viewBox="0 0 820 510" font-family="'Segoe UI', Roboto, Helvetica, Arial, sans-serif">
  <rect width="820" height="510" fill="#f8fafc"/>
  <rect x="20" y="20" width="780" height="56" rx="10" fill="#1f3a5f"/>
  <text x="410" y="56" fill="#ffffff" font-size="22" font-weight="700" text-anchor="middle">别让API账单爆掉</text>
  <text x="410" y="92" fill="#475569" font-size="14" text-anchor="middle">各Agent月均成本(合计 $847) · 月预算 $500</text>
  <rect x="40" y="120" width="240" height="110" rx="12" fill="#ffffff" stroke="#cbd5e1" stroke-width="2"/>
  <text x="160" y="155" fill="#475569" font-size="15" font-weight="normal" text-anchor="middle">今日消耗</text>
  <text x="160" y="198" fill="#e0a82e" font-size="30" font-weight="700" text-anchor="middle">$12.45</text>
  <rect x="290" y="120" width="240" height="110" rx="12" fill="#ffffff" stroke="#cbd5e1" stroke-width="2"/>
  <text x="410" y="155" fill="#475569" font-size="15" font-weight="normal" text-anchor="middle">本月累计</text>
  <text x="410" y="198" fill="#2e9e6b" font-size="30" font-weight="700" text-anchor="middle">$287.30</text>
  <rect x="540" y="120" width="240" height="110" rx="12" fill="#ffffff" stroke="#4a90d9" stroke-width="2"/>
  <text x="660" y="148" fill="#1f3a5f" font-size="15" font-weight="700" text-anchor="middle">月预算 $500</text>
  <text x="660" y="175" fill="#475569" font-size="15" font-weight="normal" text-anchor="middle">已用 57%</text>
  <text x="660" y="202" fill="#475569" font-size="13" font-weight="normal" text-anchor="middle">剩余 $212.70</text>
  <rect x="40" y="270" width="140" height="180" rx="12" fill="#ffffff" stroke="#cbd5e1" stroke-width="2"/>
  <text x="110" y="300" fill="#1f3a5f" font-size="15" font-weight="700" text-anchor="middle">Kai</text>
  <text x="110" y="322" fill="#475569" font-size="12" font-weight="normal" text-anchor="middle">开发</text>
  <text x="110" y="365" fill="#1f3a5f" font-size="22" font-weight="700" text-anchor="middle">$310</text>
  <rect x="60" y="390" width="100" height="22" rx="4" fill="#4a90d9"/>
  <rect x="190" y="270" width="140" height="180" rx="12" fill="#ffffff" stroke="#cbd5e1" stroke-width="2"/>
  <text x="260" y="300" fill="#1f3a5f" font-size="15" font-weight="700" text-anchor="middle">Rex</text>
  <text x="260" y="322" fill="#475569" font-size="12" font-weight="normal" text-anchor="middle">运维</text>
  <text x="260" y="365" fill="#1f3a5f" font-size="22" font-weight="700" text-anchor="middle">$85</text>
  <rect x="210" y="390" width="27" height="22" rx="4" fill="#4a90d9"/>
  <rect x="340" y="270" width="140" height="180" rx="12" fill="#ffffff" stroke="#cbd5e1" stroke-width="2"/>
  <text x="410" y="300" fill="#1f3a5f" font-size="15" font-weight="700" text-anchor="middle">Max</text>
  <text x="410" y="322" fill="#475569" font-size="12" font-weight="normal" text-anchor="middle">运营</text>
  <text x="410" y="365" fill="#1f3a5f" font-size="22" font-weight="700" text-anchor="middle">$210</text>
  <rect x="360" y="390" width="67" height="22" rx="4" fill="#4a90d9"/>
  <rect x="490" y="270" width="140" height="180" rx="12" fill="#ffffff" stroke="#cbd5e1" stroke-width="2"/>
  <text x="560" y="300" fill="#1f3a5f" font-size="15" font-weight="700" text-anchor="middle">基础设施</text>
  <text x="560" y="365" fill="#1f3a5f" font-size="22" font-weight="700" text-anchor="middle">$102</text>
  <rect x="510" y="390" width="32" height="22" rx="4" fill="#4a90d9"/>
  <rect x="640" y="270" width="140" height="180" rx="12" fill="#ffffff" stroke="#cbd5e1" stroke-width="2"/>
  <text x="710" y="300" fill="#1f3a5f" font-size="15" font-weight="700" text-anchor="middle">其他</text>
  <text x="710" y="365" fill="#1f3a5f" font-size="22" font-weight="700" text-anchor="middle">$140</text>
  <rect x="660" y="390" width="45" height="22" rx="4" fill="#4a90d9"/>
  <text x="410" y="478" fill="#1f3a5f" font-size="16" font-weight="700" text-anchor="middle">合计 $847</text>
</svg>
