<svg xmlns="http://www.w3.org/2000/svg" viewBox="0 0 820 540" font-family="'Segoe UI', Roboto, Helvetica, Arial, sans-serif">
  <defs>
    <marker id="arrowCostEn" markerWidth="8" markerHeight="8" refX="6" refY="3" orient="auto">
      <path d="M0,0 L6,3 L0,6 Z" fill="#4a90d9"/>
    </marker>
  </defs>
  <rect width="820" height="540" fill="#f8fafc"/>
  <rect x="20" y="20" width="780" height="56" rx="10" fill="#1f3a5f"/>
  <text x="410" y="56" fill="#fff" font-size="22" font-weight="700" text-anchor="middle">Building an Agent Team · Cost Breakdown</text>

  <!-- API / Token -->
  <rect x="40" y="100" width="370" height="220" rx="12" fill="#fff" stroke="#cbd5e1" stroke-width="2"/>
  <text x="225" y="130" fill="#1f3a5f" font-size="17" font-weight="700" text-anchor="middle">API / Token Unit Price</text>
  <text x="60" y="170" fill="#475569" font-size="15">Inference (Claude/GPT)</text>
  <line x1="270" y1="165" x2="300" y2="165" stroke="#4a90d9" stroke-width="2" marker-end="url(#arrowCostEn)"/>
  <text x="308" y="170" fill="#1f3a5f" font-size="15" font-weight="700">$0.15–$0.90/M</text>
  <text x="60" y="210" fill="#475569" font-size="15">Fast (Haiku/4o-mini)</text>
  <line x1="270" y1="205" x2="300" y2="205" stroke="#4a90d9" stroke-width="2" marker-end="url(#arrowCostEn)"/>
  <text x="308" y="210" fill="#1f3a5f" font-size="15" font-weight="700">$0.03–0.15/M</text>
  <text x="60" y="250" fill="#475569" font-size="15">Embedding / vector</text>
  <line x1="240" y1="245" x2="270" y2="245" stroke="#4a90d9" stroke-width="2" marker-end="url(#arrowCostEn)"/>
  <text x="278" y="250" fill="#1f3a5f" font-size="15" font-weight="700">$0.02/M</text>
  <text x="60" y="295" fill="#475569" font-size="14">Usage-based; inference is the big one</text>

  <!-- Infrastructure + other -->
  <rect x="430" y="100" width="350" height="220" rx="12" fill="#fff" stroke="#cbd5e1" stroke-width="2"/>
  <text x="605" y="130" fill="#1f3a5f" font-size="17" font-weight="700" text-anchor="middle">Infra / Other Costs</text>
  <text x="450" y="170" fill="#475569" font-size="15">Vector DB / storage</text>
  <line x1="610" y1="165" x2="640" y2="165" stroke="#4a90d9" stroke-width="2" marker-end="url(#arrowCostEn)"/>
  <text x="648" y="170" fill="#1f3a5f" font-size="15" font-weight="700">$20–200/mo</text>
  <text x="450" y="210" fill="#475569" font-size="15">CI/CD / deploy</text>
  <line x1="580" y1="205" x2="610" y2="205" stroke="#4a90d9" stroke-width="2" marker-end="url(#arrowCostEn)"/>
  <text x="618" y="210" fill="#1f3a5f" font-size="15" font-weight="700">$10–50/mo</text>
  <text x="450" y="250" fill="#475569" font-size="15">• Opportunity cost</text>
  <text x="450" y="285" fill="#475569" font-size="15">• Hidden cost (learning curve)</text>
  <text x="450" y="315" fill="#475569" font-size="15">• Trial-and-error cost</text>

  <!-- Time investment -->
  <rect x="40" y="340" width="740" height="170" rx="12" fill="#fff" stroke="#2e9e6b" stroke-width="2"/>
  <text x="410" y="370" fill="#2e9e6b" font-size="17" font-weight="700" text-anchor="middle">Time Investment</text>
  <text x="70" y="410" fill="#475569" font-size="15">Build phase: 2 – 4 weeks</text>
  <text x="70" y="445" fill="#475569" font-size="15">Early incubation: 1 – 2 months</text>
  <text x="70" y="480" fill="#475569" font-size="15">Ongoing: 2 – 4 h / week</text>
  <text x="430" y="410" fill="#475569" font-size="15">Time is the most expensive cost</text>
  <text x="430" y="445" fill="#475569" font-size="15">Run a small loop first, then add Agents</text>
  <text x="430" y="480" fill="#1f3a5f" font-size="15" font-weight="700">Starter total ~ $200 – 800 / month</text>
</svg>
