<svg xmlns="http://www.w3.org/2000/svg" viewBox="0 0 820 420" font-family="'Segoe UI', Roboto, Helvetica, Arial, sans-serif">
  <defs>
    <marker id="arr" markerWidth="10" markerHeight="10" refX="8" refY="3" orient="auto">
      <path d="M0,0 L8,3 L0,6 Z" fill="#475569"/>
    </marker>
  </defs>
  <rect width="820" height="420" fill="#f8fafc"/>
  <rect x="20" y="20" width="780" height="56" rx="12" fill="#1f3a5f"/>
  <text x="410" y="55" fill="#ffffff" font-size="22" font-weight="700" text-anchor="middle">Agent 自进化机制 · 四个阶段</text>

  <line x1="205" y1="215" x2="223" y2="215" stroke="#94a3b8" stroke-width="2.5" marker-end="url(#arr)"/>
  <line x1="400" y1="215" x2="418" y2="215" stroke="#94a3b8" stroke-width="2.5" marker-end="url(#arr)"/>
  <line x1="595" y1="215" x2="613" y2="215" stroke="#94a3b8" stroke-width="2.5" marker-end="url(#arr)"/>

  <rect x="30" y="110" width="175" height="210" rx="12" fill="#ffffff" stroke="#cbd5e1" stroke-width="2"/>
  <circle cx="117.5" cy="128" r="20" fill="#4a90d9"/>
  <text x="117.5" y="134" fill="#ffffff" font-size="16" font-weight="700" text-anchor="middle">1</text>
  <text x="117.5" y="172" fill="#1f3a5f" font-size="17" font-weight="700" text-anchor="middle">观察 Observe</text>
  <text x="48" y="205" fill="#475569" font-size="13">• 记录成功/失败模式</text>
  <text x="48" y="232" fill="#475569" font-size="13">• Token 消耗审计</text>

  <rect x="225" y="110" width="175" height="210" rx="12" fill="#ffffff" stroke="#cbd5e1" stroke-width="2"/>
  <circle cx="312.5" cy="128" r="20" fill="#1f3a5f"/>
  <text x="312.5" y="134" fill="#ffffff" font-size="16" font-weight="700" text-anchor="middle">2</text>
  <text x="312.5" y="172" fill="#1f3a5f" font-size="17" font-weight="700" text-anchor="middle">分析 Analyze</text>
  <text x="243" y="205" fill="#475569" font-size="13">• 识别流程模式</text>
  <text x="243" y="232" fill="#475569" font-size="13">• 发现改进机会</text>
  <text x="243" y="259" fill="#475569" font-size="13">• 对比历史表现</text>

  <rect x="420" y="110" width="175" height="210" rx="12" fill="#ffffff" stroke="#cbd5e1" stroke-width="2"/>
  <circle cx="507.5" cy="128" r="20" fill="#2e9e6b"/>
  <text x="507.5" y="134" fill="#ffffff" font-size="16" font-weight="700" text-anchor="middle">3</text>
  <text x="507.5" y="172" fill="#1f3a5f" font-size="17" font-weight="700" text-anchor="middle">改进 Improve</text>
  <text x="438" y="205" fill="#475569" font-size="13">• 优化 Prompt</text>
  <text x="438" y="232" fill="#475569" font-size="13">• 调整工作流程</text>
  <text x="438" y="259" fill="#475569" font-size="13">• 更新知识库</text>

  <rect x="615" y="110" width="175" height="210" rx="12" fill="#ffffff" stroke="#cbd5e1" stroke-width="2"/>
  <circle cx="702.5" cy="128" r="20" fill="#e0a82e"/>
  <text x="702.5" y="134" fill="#ffffff" font-size="16" font-weight="700" text-anchor="middle">4</text>
  <text x="702.5" y="172" fill="#1f3a5f" font-size="17" font-weight="700" text-anchor="middle">验证 Verify</text>
  <text x="633" y="205" fill="#475569" font-size="13">• A/B 测试验证</text>
  <text x="633" y="232" fill="#475569" font-size="13">• 效果量化评估</text>
  <text x="633" y="259" fill="#475569" font-size="13">• 迭代循环</text>

  <text x="410" y="365" fill="#64748b" font-size="14" text-anchor="middle">每 24 小时自动进化一次，人类仅需审批改进提案。</text>
</svg>
