<svg xmlns="http://www.w3.org/2000/svg" viewBox="0 0 820 560" font-family="'Segoe UI', Roboto, Helvetica, Arial, sans-serif">
  <rect width="820" height="560" fill="#f8fafc"/>
  <rect x="20" y="20" width="780" height="56" rx="12" fill="#1f3a5f"/>
  <text x="410" y="55" fill="#ffffff" font-size="22" font-weight="700" text-anchor="middle">成本监控 · 别让 API 账单爆掉</text>

  <rect x="40" y="110" width="350" height="110" rx="12" fill="#ffffff" stroke="#cbd5e1" stroke-width="2"/>
  <text x="62" y="145" fill="#475569" font-size="15">今日消耗</text>
  <text x="62" y="192" fill="#e0a82e" font-size="34" font-weight="700">$12.45</text>
  <text x="62" y="212" fill="#64748b" font-size="12">推理 / 快速 / Embedding Token</text>

  <rect x="430" y="110" width="350" height="110" rx="12" fill="#ffffff" stroke="#cbd5e1" stroke-width="2"/>
  <text x="452" y="145" fill="#475569" font-size="15">本月累计</text>
  <text x="452" y="192" fill="#2e9e6b" font-size="34" font-weight="700">$287.30</text>
  <text x="452" y="212" fill="#64748b" font-size="12">较上周 +8%</text>

  <rect x="40" y="245" width="350" height="150" rx="12" fill="#ffffff" stroke="#cbd5e1" stroke-width="2"/>
  <text x="62" y="275" fill="#475569" font-size="15">7 天趋势</text>
  <rect x="75" y="305" width="40" height="63" rx="4" fill="#4a90d9"/>
  <rect x="138" y="296" width="40" height="72" rx="4" fill="#4a90d9"/>
  <rect x="201" y="301" width="40" height="67" rx="4" fill="#4a90d9"/>
  <rect x="264" y="288" width="40" height="80" rx="4" fill="#1f3a5f"/>
  <rect x="327" y="303" width="40" height="65" rx="4" fill="#4a90d9"/>
  <text x="95" y="384" fill="#64748b" font-size="12" text-anchor="middle">一</text>
  <text x="158" y="384" fill="#64748b" font-size="12" text-anchor="middle">二</text>
  <text x="221" y="384" fill="#64748b" font-size="12" text-anchor="middle">三</text>
  <text x="284" y="384" fill="#64748b" font-size="12" text-anchor="middle">四</text>
  <text x="347" y="384" fill="#64748b" font-size="12" text-anchor="middle">五</text>

  <rect x="430" y="245" width="350" height="150" rx="12" fill="#ffffff" stroke="#cbd5e1" stroke-width="2"/>
  <text x="452" y="275" fill="#475569" font-size="15">预算控制（月）</text>
  <text x="452" y="308" fill="#1f3a5f" font-size="22" font-weight="700">$287.30 / $500</text>
  <rect x="452" y="324" width="306" height="16" rx="8" fill="#e2e8f0"/>
  <rect x="452" y="324" width="174" height="16" rx="8" fill="#e0a82e"/>
  <text x="452" y="362" fill="#b45309" font-size="12">已用 57%</text>
  <text x="758" y="362" fill="#2e9e6b" font-size="12" text-anchor="end">剩余 $212.70</text>

  <rect x="40" y="418" width="740" height="110" rx="12" fill="#ffffff" stroke="#cbd5e1" stroke-width="2"/>
  <text x="62" y="448" fill="#1f3a5f" font-size="15" font-weight="700">告警与优化</text>
  <circle cx="66" cy="472" r="4" fill="#2e9e6b"/>
  <text x="78" y="477" fill="#475569" font-size="13">Token 使用正常</text>
  <circle cx="66" cy="497" r="4" fill="#e0a82e"/>
  <text x="78" y="502" fill="#475569" font-size="13">推理模型占比偏高，建议增加快速模型调用</text>
  <circle cx="66" cy="522" r="4" fill="#2e9e6b"/>
  <text x="78" y="527" fill="#475569" font-size="13">剩余预算合理，可继续</text>
</svg>
